HIERARCHY
ROOT ui
{
	 OFFSET 0 0 0
	 CHANNELS 3 XPosition YPosition Z Position
	 EndSite
	 {
	 OFFSET 0 -1 0
	 }
}
ROOT li
{
	 OFFSET 0 0 0
	 CHANNELS 3 XPosition YPosition Z Position
	 EndSite
	 {
	 OFFSET 0 -1 0
	 }
}
ROOT ul
{
	 OFFSET 0 0 0
	 CHANNELS 3 XPosition YPosition Z Position
	 EndSite
	 {
	 OFFSET 0 -1 0
	 }
}
ROOT ll
{
	 OFFSET 0 0 0
	 CHANNELS 3 XPosition YPosition Z Position
	 EndSite
	 {
	 OFFSET 0 -1 0
	 }
}
ROOT tt
{
	 OFFSET 0 0 0
	 CHANNELS 3 XPosition YPosition Z Position
	 EndSite
	 {
	 OFFSET 0 -1 0
	 }
}
ROOT tb
{
	 OFFSET 0 0 0
	 CHANNELS 3 XPosition YPosition Z Position
	 EndSite
	 {
	 OFFSET 0 -1 0
	 }
}
ROOT td
{
	 OFFSET 0 0 0
	 CHANNELS 3 XPosition YPosition Z Position
	 EndSite
	 {
	 OFFSET 0 -1 0
	 }
}
ROOT v
{
	 OFFSET 0 0 0
	 CHANNELS 3 XPosition YPosition Z Position
	 EndSite
	 {
	 OFFSET 0 -1 0
	 }
}
ROOT bn
{
	 OFFSET 0 0 0
	 CHANNELS 3 XPosition YPosition Z Position
	 EndSite
	 {
	 OFFSET 0 -1 0
	 }
}
MOTION
Frames: 27
Frame Time: 0.002
0.004356254100799561	3.2175201177597046E-4	0		0.6230786743164063	-2.734420654296875	0		-0.9582181396484375	-0.04095210266113281	0		-0.1553085479736328	-3.417986572265625	0		2.40039794921875	-1.40597900390625	0		3.66523583984375	-0.60633203125	0		4.936759765625	-0.24279887390136717	0		5.90597509765625	0.34343450927734376	0		-0.1775125732421875	5.9209775390625	0		
0.00734959602355957	0.0037918970584869386	0		0.6509774169921875	-2.73426806640625	0		-0.9582620239257813	-0.04042537307739258	0		-0.14150819396972655	-3.424646484375	0		2.402362548828125	-1.4025457763671876	0		3.6610341796875	-0.6178504028320313	0		4.94078466796875	-0.23644232177734376	0		5.89793994140625	0.3439180908203125	0		-0.1433634796142578	5.92707275390625	0		
0.015327874183654786	0.0032319629192352293	0		0.6529353637695312	-2.731768310546875	0		-0.9532355346679687	-0.03692864990234375	0		-0.1395525360107422	-3.42113037109375	0		2.395422607421875	-1.3939732666015625	0		3.682083984375	-0.6116465454101563	0		4.94158740234375	-0.25101921081542966	0		5.89385302734375	0.33738165283203125	0		-0.14324801635742188	5.92761376953125	0		
0.0073532209396362305	0.004898414134979248	0		0.6679371337890625	-2.7273974609375	0		-0.9582603149414063	-0.03927788925170898	0		-0.08962942504882812	-3.4221708984375	0		2.404441162109375	-1.3905662841796875	0		3.664072509765625	-0.61193603515625	0		4.929779296875	-0.23541038513183593	0		5.884873046875	0.3379344482421875	0		-0.1923131103515625	5.911787109375	0		
0.008273691177368163	-0.002514427900314331	0		0.6409348754882812	-2.72348193359375	0		-0.9631808471679687	-0.03359696197509766	0		-0.15257052612304686	-3.411797607421875	0		2.397528076171875	-1.3819345703125	0		3.675003173828125	-0.6175516967773438	0		4.94568115234375	-0.24411489868164063	0		5.88080126953125	0.3304543762207031	0		-0.1770313262939453	5.92320556640625	0		
0.005244149208068848	-0.004849679946899414	0		0.6507699584960938	-2.73199072265625	0		-0.972259765625	-0.03983651733398438	0		-0.1397386932373047	-3.419325439453125	0		2.3876650390625	-1.3682381591796875	0		3.661886962890625	-0.6258452758789063	0		4.922671875	-0.244314453125	0		5.877693359375	0.32098883056640626	0		-0.17590457153320313	5.92282470703125	0		
-0.040689315795898434	0.003371675968170166	0		0.6277734375	-2.724067138671875	0		-0.9582601318359375	-0.037331687927246095	0		-0.1436166534423828	-3.400618896484375	0		2.3905615234375	-1.3716729736328126	0		3.7070927734375	-0.6058277587890625	0		4.93771630859375	-0.23795480346679687	0		5.88666455078125	0.32040142822265627	0		-0.1738192138671875	5.9214599609375	0		
0.01527266502380371	0.006363772869110108	0		0.6747367553710938	-2.715979248046875	0		-0.9272848510742188	-0.03301069259643555	0		-0.13867767333984374	-3.39299560546875	0		2.388645263671875	-1.356020751953125	0		3.664814208984375	-0.6207091064453125	0		4.92766552734375	-0.23525985717773437	0		5.86451611328125	0.31422384643554685	0		-0.14166119384765624	5.92975048828125	0		
-0.04392998123168945	0.0018008430004119874	0		0.6175606079101562	-2.71358203125	0		-0.982476318359375	-0.0366024169921875	0		-0.14874867248535156	-3.381162109375	0		2.381581787109375	-1.347279541015625	0		3.6697041015625	-0.6171439208984375	0		4.94032861328125	-0.2508198547363281	0		5.8692783203125	0.3057415771484375	0		-0.15679879760742188	5.91964794921875	0		
0.00784742784500122	8.891010284423828E-4	0		0.6722427978515625	-2.717544677734375	0		-0.9867325439453125	-0.03980062484741211	0		-0.15582833862304687	-3.364342529296875	0		2.389482421875	-1.3356990966796876	0		3.670360595703125	-0.626502685546875	0		4.9332041015625	-0.24310794067382813	0		5.860880859375	0.2904478454589844	0		-0.1909506378173828	5.9148037109375	0		
-0.05150851440429687	-0.0036274349689483644	0		0.6189798583984375	-2.710150146484375	0		-0.9910563354492188	-0.04197919082641602	0		-0.13517214965820312	-3.36284814453125	0		2.3922060546875	-1.33203369140625	0		3.672247802734375	-0.6108518676757813	0		4.92192626953125	-0.241320556640625	0		5.86469970703125	0.29902981567382814	0		-0.17499349975585937	5.92535986328125	0		
0.00719364595413208	0.0024093940258026122	0		0.6584703979492188	-2.71688916015625	0		-0.987387939453125	-0.03824112319946289	0		-0.135305908203125	-3.338078369140625	0		2.362989013671875	-1.316951171875	0		3.667707275390625	-0.6231021118164063	0		4.92155419921875	-0.24064527893066406	0		5.85533837890625	0.29979888916015623	0		-0.14020132446289063	5.929697265625	0		
-0.04219872283935547	0.0078021240234375	0		0.642252197265625	-2.69391943359375	0		-0.9548868408203125	-0.04185037612915039	0		-0.13754844665527344	-3.31626904296875	0		2.394629638671875	-1.3076070556640624	0		3.689335693359375	-0.6156561889648438	0		4.92110400390625	-0.23994692993164063	0		5.841798828125	0.2926433410644531	0		-0.14055682373046874	5.9294833984375	0		
0.00623203182220459	0.003987807035446167	0		0.6755181274414063	-2.707556884765625	0		-0.9634898071289062	-0.04794066619873047	0		-0.12897877502441407	-3.3045849609375	0		2.356321044921875	-1.2883770751953125	0		3.670787109375	-0.6166935424804687	0		4.91469677734375	-0.23015347290039062	0		5.84128759765625	0.29334866333007814	0		-0.1551175537109375	5.91945556640625	0		
-4.2791900038719176E-4	-0.002135401010513306	0		0.6670469360351563	-2.695665283203125	0		-0.9759380493164063	-0.03697760391235352	0		-0.13032127380371095	-3.28177099609375	0		2.34801806640625	-1.2645086669921874	0		3.666143798828125	-0.6208901977539063	0		4.9090087890625	-0.23835377502441407	0		5.83349462890625	0.27616177368164063	0		-0.14147660827636718	5.931083984375	0		
-0.001044271945953369	-0.0013325079679489136	0		0.6414650268554688	-2.689558349609375	0		-1.0016651611328125	-0.044851261138916014	0		-0.21464308166503906	-3.253920654296875	0		2.31855224609375	-1.25037109375	0		3.659308837890625	-0.6370518188476563	0		4.90839013671875	-0.23760536193847656	0		5.8377685546875	0.26783822631835935	0		-0.17412443542480469	5.9242880859375	0		
0.014284537315368653	-0.0027332029342651367	0		0.6567693481445313	-2.69096484375	0		-0.9593887939453125	-0.050579631805419925	0		-0.11411334991455079	-3.237382080078125	0		2.319133056640625	-1.2306072998046875	0		3.6809560546875	-0.6125628662109375	0		4.90774267578125	-0.23685124206542968	0		5.8322265625	0.2766456604003906	0		-0.1727404479980469	5.92306396484375	0		
0.013624335289001465	-0.0019432929754257201	0		0.6492525024414062	-2.67709326171875	0		-1.0029710083007812	-0.043245899200439454	0		-0.25316156005859375	-3.184858642578125	0		2.303852294921875	-1.198649169921875	0		3.652081298828125	-0.628448486328125	0		4.8981064453125	-0.23398463439941405	0		5.82338134765625	0.262494384765625	0		-0.19145611572265625	5.91608056640625	0		
0.003073425054550171	0.007957472801208496	0		0.6656475219726562	-2.670532958984375	0		-0.97068798828125	-0.04687606430053711	0		-0.12476554107666016	-3.178693603515625	0		2.2903701171875	-1.1827237548828125	0		3.64551416015625	-0.6196173095703125	0		4.8874794921875	-0.23010983276367186	0		5.8186064453125	0.25429013061523437	0		-0.15702850341796876	5.92142041015625	0		
0.005213827133178711	-0.007320262908935547	0		0.6390184936523438	-2.666451904296875	0		-0.975397216796875	-0.05006386566162109	0		-0.2539381866455078	-3.137324951171875	0		2.316917236328125	-1.16531201171875	0		3.6597138671875	-0.6300579833984375	0		4.88373193359375	-0.236330078125	0		5.81384814453125	0.24707925415039061	0		-0.15668003845214845	5.9211669921875	0		
0.004566308975219727	-0.006584352970123291	0		0.6414171142578124	-2.6617548828125	0		-0.9760447998046875	-0.049326610565185544	0		-0.2611393432617187	-3.10050390625	0		2.271584228515625	-1.1390185546875	0		3.64542919921875	-0.6001543579101563	0		4.8812841796875	-0.21957711791992188	0		5.80440185546875	0.26391845703125	0		-0.15633200073242187	5.920890625	0		
-0.004950183868408203	0.0032367680072784423	0		0.60216748046875	-2.630559814453125	0		-1.0036848754882812	-0.04928037261962891	0		-0.2764655456542969	-3.075609130859375	0		2.260193603515625	-1.119171630859375	0		3.633525634765625	-0.6213031616210938	0		4.8706806640625	-0.21673939514160157	0		5.8035595703125	0.24763331604003908	0		-0.17590203857421874	5.9268369140625	0		
0.010416884422302247	0.0017163039445877075	0		0.6585512084960937	-2.631591064453125	0		-0.9672943115234375	-0.049066280364990236	0		-0.28055084228515625	-3.0338837890625	0		2.240066650390625	-1.0802388916015624	0		3.636108154296875	-0.6056522827148437	0		4.86111279296875	-0.2129341278076172	0		5.79396533203125	0.24944134521484376	0		-0.15758924865722657	5.92227880859375	0		
0.002751013994216919	-0.004549240112304688	0		0.6310119018554687	-2.628604248046875	0		-0.9759598388671875	-0.05532399749755859	0		-0.28970223999023437	-3.00012890625	0		2.244742431640625	-1.059645751953125	0		3.621533203125	-0.6048135986328125	0		4.84748583984375	-0.21610177612304687	0		5.799072265625	0.22504238891601563	0		-0.15819647216796875	5.9229248046875	0		
-0.0066831989288330075	0.00517271614074707	0		0.6495928344726563	-2.61922802734375	0		-0.9805564575195312	-0.05866994094848633	0		-0.3327768249511719	-2.962986328125	0		2.222615966796875	-1.02574853515625	0		3.59804150390625	-0.5998924560546876	0		4.8379658203125	-0.21334725952148437	0		5.7985234375	0.22569094848632812	0		-0.158782958984375	5.92353369140625	0		
0.0016914169788360596	-0.0033680269718170167	0		0.6002181396484375	-2.609040771484375	0		-0.9751311645507813	-0.0631815185546875	0		-0.28509390258789064	-2.949018310546875	0		2.21233740234375	-1.0070360107421874	0		3.580485595703125	-0.6030796508789062	0		4.817494140625	-0.20948736572265625	0		5.78409765625	0.23348350524902345	0		-0.17630496215820313	5.9273154296875	0		
0.001217751979827881	-0.0028395090103149412	0		0.632853759765625	-2.601918701171875	0		-1.0004651489257812	-0.051351291656494144	0		-0.35597308349609375	-2.902610595703125	0		2.167363037109375	-0.966928466796875	0		3.5802294921875	-0.5855186767578126	0		4.8039736328125	-0.2127510223388672	0		5.796720703125	0.2419037780761719	0		-0.17585955810546874	5.925830078125	0		
